<?xml version="1.0" encoding="utf-8"?>
<!-- Generator: Adobe Illustrator 27.5.0, SVG Export Plug-In . SVG Version: 6.00 Build 0)  -->
<svg version="1.1" id="Artwork" xmlns="http://www.w3.org/2000/svg" xmlns:xlink="http://www.w3.org/1999/xlink" x="0px" y="0px"
	 viewBox="0 0 354.3684 47.7976" style="enable-background:new 0 0 354.3684 47.7976;" xml:space="preserve">
<style type="text/css">
	.st0{fill:#192D38;}
</style>
<g>
	<path class="st0" d="M342.9727,47.7976c7.6237,0,11.3957-3.1131,11.3957-8.6786v-0.211c0-4.0356-2.2947-6.7789-7.5444-7.3593
		l-6.9113-0.7386c-2.0048-0.2115-2.9806-1.24-2.9806-3.0599v-1.6093c0-0.6065,0.3959-0.9762,0.9758-0.9762h8.9427
		c0.6064,0,0.9758,0.3698,0.9758,0.9762v2.9805h6.1726c-0.3693-5.6711-4.1412-8.6254-11.6595-8.6254
		c-7.1223,0-11.1847,2.7695-11.1847,8.2566v0.1051c0,3.9833,2.6118,6.8583,6.753,7.2804l7.8082,0.7918
		c2.0048,0.2106,2.9017,1.2395,2.9017,3.1649v2.0047c0,0.5808-0.3693,0.9496-0.9496,0.9496h-9.602
		c-0.5803,0-0.9758-0.3688-0.9758-0.9496V39.119h-6.4103C330.8383,44.6845,335.1383,47.7976,342.9727,47.7976 M320.4455,18.2803
		h6.7264v-6.4629h-6.7264V18.2803z M320.551,47.2696h6.5158V21.0231h-6.5158V47.2696z M308.984,47.2696h6.5158V11.8174h-6.5158
		V47.2696z M297.6285,26.1409v5.9087h-9.8396c-5.1703,0-8.3091,2.8488-8.3091,7.5703c0,5.3816,4.194,8.1777,9.813,8.1777
		c3.8247,0,6.9641-1.5038,8.3358-4.7485h-10.4727c-0.5803,0-0.9758-0.3688-0.9758-0.9496v-6.3041h11.4485v11.4742h6.5154V28.8049
		c0-5.5922-4.59-8.3089-11.4485-8.3089c-7.0695,0-12.3453,3.0071-12.4509,8.9158h5.9355v-3.2709
		c0-0.6065,0.3954-0.9762,0.9758-0.9762h9.523C297.2592,25.1647,297.6285,25.5345,297.6285,26.1409 M261.0411,17.9899h5.0381
		l4.1417-6.1725h-7.2017L261.0411,17.9899z M257.4008,32.0496v-5.9087c0-0.6065,0.3693-0.9762,0.9496-0.9762h10.8416
		c0.6069,0,0.9762,0.3698,0.9762,0.9762v5.9087H257.4008z M263.9955,47.7976c7.2806,0,11.4746-4.1943,12.477-9.18h-6.4892v3.4819
		c0,0.5808-0.3693,0.9496-0.9496,0.9496h-10.6833c-0.5803,0-0.9496-0.3688-0.9496-0.9496v-6.3041h19.23v-2.374
		c0-3.6663-0.8969-6.8322-2.7434-9.0475c-2.1364-2.5589-5.7767-3.8778-10.024-3.8778c-4.3789,0-8.0454,1.2661-10.314,3.8246
		c-2.0048,2.3213-2.981,5.5926-2.981,9.6544v0.3431c0,4.0888,0.9762,7.2804,2.981,9.575
		C255.8708,46.4787,259.4845,47.7976,263.9955,47.7976 M219.9283,47.2696h6.2034V34.3709c0-0.5803,0.3693-0.9496,0.9496-0.9496
		h11.3122l5.4602,13.8483h6.5994l-5.935-14.8506c-1.0024-2.5057-1.8465-3.5347-3.4292-3.9306
		c-0.7125-0.1844-1.5566-0.2372-2.6379-0.2372h-11.3696c-0.5803,0-0.9496-0.3693-0.9496-0.9496V16.9875h13.9809
		c0.5804,0,0.9763,0.3693,0.9763,0.9496v10.5512c5.3285-1.9254,6.753-4.6687,6.753-7.9657c0-5.4343-3.7458-8.7052-10.6044-8.7052
		h-17.3092V47.2696z M204.6207,47.7976c7.6238,0,11.3957-3.1131,11.3957-8.6786v-0.211c0-4.0356-2.2947-6.7789-7.5444-7.3593
		l-6.9113-0.7386c-2.0048-0.2115-2.9806-1.24-2.9806-3.0599v-1.6093c0-0.6065,0.3954-0.9762,0.9758-0.9762h8.9427
		c0.6065,0,0.9758,0.3698,0.9758,0.9762v2.9805h6.1727c-0.3693-5.6711-4.1413-8.6254-11.6595-8.6254
		c-7.1223,0-11.1847,2.7695-11.1847,8.2566v0.1051c0,3.9833,2.6118,6.8583,6.753,7.2804l7.8082,0.7918
		c2.0048,0.2106,2.9017,1.2395,2.9017,3.1649v2.0047c0,0.5808-0.3693,0.9496-0.9496,0.9496h-9.6019
		c-0.5803,0-0.9758-0.3688-0.9758-0.9496V39.119h-6.4103C192.4864,44.6845,196.7864,47.7976,204.6207,47.7976 M164.8417,47.2696
		h6.5154V21.0231h-6.5154V47.2696z M182.1463,26.7474v20.5222h6.5158V28.0402c0-4.537-3.2182-7.4914-8.6789-7.4914
		c-4.3261,0-7.2012,1.8731-8.6257,5.2495h9.8391C181.777,25.7983,182.1463,26.1671,182.1463,26.7474 M153.3932,18.2803h6.7269
		v-6.4629h-6.7269V18.2803z M153.4988,47.2696h6.5154V21.0231h-6.5154V47.2696z M132.6865,33.1837l10.7365,14.0859h7.465
		l-10.6832-13.8217c-0.2638-0.3698-0.2638-0.7386,0.0527-1.1083l10.525-11.316h-7.043L132.6865,33.1837z M132.6865,11.8174h-6.5154
		v35.4522h6.5154V11.8174z M115.9626,13.3212h-6.4892v6.6734c0,0.6331-0.3693,1.029-0.9758,1.029h-3.8513v4.4843h4.8271v14.8506
		c0,4.4315,2.6379,6.9111,7.2017,6.9111h5.5923v-4.6159h-5.3552c-0.5803,0-0.9496-0.3693-0.9496-0.9496V25.5079h6.3048v-4.4843
		h-6.3048V13.3212z M99.5252,47.2695h7.0168L95.4101,14.4291c-0.6859-1.9781-1.5827-2.6117-3.2182-2.6117h-6.964
		c-1.5566,0-2.4007,0.6335-3.0866,2.6117L70.9038,47.2695h6.8585l3.1114-10.0498h15.5474L99.5252,47.2695z M82.4744,32.0496
		l6.1822-19.9684l6.1676,19.9684H82.4744z"/>
	<path class="st0" d="M11.8173,11.8174C11.8173,5.2908,17.1081,0,23.6346,0c0,0,11.8173,0,11.8173,0v11.8174H11.8173z
		 M70.9038,11.8174V0c0,0-11.8173,0-11.8173,0C52.56,0,47.2692,5.2908,47.2692,11.8174H70.9038z M-0.0001,23.6348v11.8174h11.8173
		c0,0,0-23.6348,0-23.6348C5.2907,11.8174-0.0001,17.1082-0.0001,23.6348z M23.6346,47.2695
		c6.5265,0,11.8173-5.2908,11.8173-11.8174H11.8173v11.8174C11.8173,47.2695,23.6346,47.2695,23.6346,47.2695z M47.2692,47.2695
		V11.8174H35.4519v23.6348C35.4519,41.9787,40.7427,47.2695,47.2692,47.2695z"/>
</g>
</svg>
