<svg width="284" height="189" viewBox="0 0 284 189" fill="none" xmlns="http://www.w3.org/2000/svg">
<path d="M47.2441 47.2443C47.2441 21.152 68.396 0 94.4882 0H141.732V47.2443H47.2441ZM283.465 47.2443V0C283.465 0 236.221 0 236.221 0C210.128 0 188.976 21.152 188.976 47.2443H283.465ZM0 94.4886V141.733H47.2441V47.2443C21.1519 47.2444 0 68.3963 0 94.4886ZM94.4882 188.977C120.58 188.977 141.732 167.825 141.732 141.733L47.2441 141.733V188.977C47.2441 188.977 94.4881 188.977 94.4882 188.977ZM188.976 188.977V47.2443H141.732V141.733C141.732 167.825 162.884 188.977 188.976 188.977Z" fill="#192D38"/>
</svg>
