<svg width="17" height="10" viewBox="0 0 17 10" fill="none" xmlns="http://www.w3.org/2000/svg">
<g clip-path="url(#clip0_2797_3536)">
<path d="M1.9476 5.51953C1.71109 5.51953 1.47457 5.65665 1.407 5.89662C1.30564 6.13658 1.37321 6.37655 1.54215 6.54795L3.77211 8.81047C4.00862 9.05043 4.38028 9.05043 4.6168 8.81047C4.85331 8.5705 4.85331 8.19342 4.6168 7.95345L3.43424 6.75363H10.1579C10.4958 6.75363 10.7661 6.47939 10.7661 6.13658C10.7661 5.79378 10.4958 5.51953 10.1579 5.51953H1.9476Z" stroke="#392EDB" stroke-width="0.5" stroke-miterlimit="10" stroke-linecap="round" stroke-linejoin="round"/>
<path d="M14.7704 4.47091C15.007 4.47091 15.2435 4.33379 15.311 4.09382C15.4124 3.85386 15.3448 3.6139 15.1759 3.44249L12.9459 1.17997C12.7094 0.940009 12.3378 0.940009 12.1013 1.17997C11.8647 1.41994 11.8647 1.79702 12.1013 2.03699L13.2838 3.23681H6.6277C6.28983 3.23681 6.01953 3.51105 6.01953 3.85386C6.01953 4.19667 6.28983 4.47091 6.6277 4.47091H14.7704Z" stroke="#392EDB" stroke-width="0.5" stroke-miterlimit="10" stroke-linecap="round" stroke-linejoin="round"/>
</g>
<defs>
<clipPath id="clip0_2797_3536">
<rect width="15.9995" height="9.99032" fill="white" transform="translate(0.359375)"/>
</clipPath>
</defs>
</svg>
