<svg width="194" height="203" viewBox="0 0 194 203" fill="none" xmlns="http://www.w3.org/2000/svg">
<g clip-path="url(#clip0_2502_6963)">
<path d="M75.1539 202.5C116.396 202.5 149.83 196.593 149.83 189.308C149.83 182.022 116.396 176.115 75.1539 176.115C33.9115 176.115 0.478027 182.022 0.478027 189.308C0.478027 196.593 33.9115 202.5 75.1539 202.5Z" fill="#3F3D56"/>
<path d="M120.541 146.463C160.847 146.463 193.522 113.788 193.522 73.4814C193.522 33.1749 160.847 0.5 120.541 0.5C80.234 0.5 47.5591 33.1749 47.5591 73.4814C47.5591 113.788 80.234 146.463 120.541 146.463Z" fill="#3F3D56"/>
<path opacity="0.05" d="M120.54 133.729C153.815 133.729 180.789 106.755 180.789 73.4809C180.789 40.2066 153.815 13.2324 120.54 13.2324C87.2662 13.2324 60.292 40.2066 60.292 73.4809C60.292 106.755 87.2662 133.729 120.54 133.729Z" fill="black"/>
<path opacity="0.05" d="M120.541 122.859C147.812 122.859 169.919 100.752 169.919 73.4805C169.919 46.2093 147.812 24.1016 120.541 24.1016C93.2693 24.1016 71.1616 46.2093 71.1616 73.4805C71.1616 100.752 93.2693 122.859 120.541 122.859Z" fill="black"/>
<path opacity="0.05" d="M120.54 108.886C140.093 108.886 155.944 93.0348 155.944 73.4819C155.944 53.9289 140.093 38.0781 120.54 38.0781C100.988 38.0781 85.1367 53.9289 85.1367 73.4819C85.1367 93.0348 100.988 108.886 120.54 108.886Z" fill="black"/>
<path d="M48.2053 80.0137C48.2053 80.0137 42.4675 96.1645 45.0176 101.902C47.5677 107.64 51.6054 113.165 51.6054 113.165C51.6054 113.165 50.1179 81.0762 48.2053 80.0137Z" fill="#D0CDE1"/>
<path opacity="0.1" d="M48.2053 80.0137C48.2053 80.0137 42.4675 96.1645 45.0176 101.902C47.5677 107.64 51.6054 113.165 51.6054 113.165C51.6054 113.165 50.1179 81.0762 48.2053 80.0137Z" fill="black"/>
<path d="M52.2429 117.415C52.2429 117.415 51.8179 121.453 51.6054 121.665C51.3929 121.878 51.8179 122.303 51.6054 122.941C51.3929 123.578 51.1804 124.428 51.6054 124.641C52.0304 124.853 49.2678 143.554 49.2678 143.554C49.2678 143.554 42.4674 152.48 45.2301 166.505L46.0801 180.744C46.0801 180.744 52.668 181.169 52.668 178.831C52.668 178.831 52.2429 176.068 52.2429 174.793C52.2429 173.518 53.3055 173.518 52.668 172.881C52.0304 172.243 52.0304 171.818 52.0304 171.818C52.0304 171.818 53.093 170.968 52.8805 170.756C52.668 170.543 54.7931 155.455 54.7931 155.455C54.7931 155.455 57.1307 153.117 57.1307 151.842V150.567C57.1307 150.567 58.1933 147.804 58.1933 147.592C58.1933 147.379 63.9311 134.416 63.9311 134.416L66.2687 143.767L68.8188 157.155C68.8188 157.155 70.0939 169.268 72.644 173.943C72.644 173.943 77.1068 189.244 77.1068 188.819C77.1068 188.394 84.5446 187.331 84.3321 185.419C84.1196 183.506 79.8694 156.73 79.8694 156.73L80.932 116.99L52.2429 117.415Z" fill="#2F2E41"/>
<path d="M46.5054 179.681C46.5054 179.681 40.7675 190.944 44.5927 191.369C48.4179 191.794 49.9055 191.794 51.6056 190.094C52.5351 189.165 54.4172 187.918 55.9326 186.978C56.8305 186.43 57.5559 185.641 58.0255 184.699C58.4951 183.758 58.69 182.704 58.5878 181.657C58.4757 180.617 58.0872 179.761 57.1309 179.681C54.5808 179.468 51.6056 177.131 51.6056 177.131L46.5054 179.681Z" fill="#2F2E41"/>
<path d="M78.1694 187.968C78.1694 187.968 72.4316 199.231 76.2568 199.656C80.082 200.081 81.5696 200.081 83.2697 198.381C84.1991 197.452 86.0813 196.205 87.5967 195.265C88.4946 194.717 89.2199 193.928 89.6896 192.987C90.1592 192.045 90.3541 190.991 90.2518 189.944C90.1398 188.904 89.7513 188.048 88.795 187.968C86.2448 187.756 83.2697 185.418 83.2697 185.418L78.1694 187.968Z" fill="#2F2E41"/>
<path d="M72.105 61.5812C77.0387 61.5812 81.0382 57.5817 81.0382 52.648C81.0382 47.7144 77.0387 43.7148 72.105 43.7148C67.1714 43.7148 63.1719 47.7144 63.1719 52.648C63.1719 57.5817 67.1714 61.5812 72.105 61.5812Z" fill="#FFB8B8"/>
<path d="M66.3622 55.584C66.3622 55.584 59.9814 67.3247 59.4709 67.3247C58.9605 67.3247 70.9564 71.1532 70.9564 71.1532C70.9564 71.1532 74.2745 59.923 74.7849 58.902L66.3622 55.584Z" fill="#FFB8B8"/>
<path d="M76.1505 68.4301C76.1505 68.4301 63.3998 61.4172 62.1247 61.6297C60.8496 61.8422 47.2489 73.7429 47.4614 78.6306C47.674 83.5184 49.374 91.5938 49.374 91.5938C49.374 91.5938 50.0116 114.12 51.2866 114.333C52.5617 114.545 51.0741 118.37 51.4992 118.37C51.9242 118.37 81.2507 118.37 81.4632 117.733C81.6757 117.095 76.1505 68.4301 76.1505 68.4301Z" fill="#D0CDE1"/>
<path d="M83.2698 118.902C83.2698 118.902 87.3075 131.228 83.9073 130.803C80.5071 130.378 79.0195 120.177 79.0195 120.177L83.2698 118.902Z" fill="#FFB8B8"/>
<path d="M72.4318 67.6877C72.4318 67.6877 64.5689 69.3878 65.844 80.0134C67.119 90.639 69.4566 101.265 69.4566 101.265L77.3196 118.478L78.1696 121.666L83.9074 120.178L79.6572 95.5267C79.6572 95.5267 78.1696 69.1753 76.257 68.3253C75.0509 67.8111 73.7395 67.5925 72.4318 67.6877Z" fill="#D0CDE1"/>
<path opacity="0.1" d="M67.6499 100.946L77.4255 118.372L69.1894 100.01L67.6499 100.946Z" fill="black"/>
<path d="M80.9987 50.0172L81.0282 49.3345L82.3862 49.6725C82.3717 49.4534 82.3097 49.24 82.2047 49.0471C82.0996 48.8543 81.954 48.6865 81.7777 48.5554L83.2242 48.4745C82.0105 46.7496 80.4597 45.2887 78.6655 44.1799C76.8713 43.0711 74.8711 42.3374 72.7855 42.0232C69.6566 41.5698 66.1728 42.226 64.0272 44.5481C62.9865 45.6744 62.3326 47.1067 61.8675 48.5679C61.0108 51.2592 60.8362 54.4674 62.6226 56.655C64.4382 58.8784 67.6096 59.3139 70.4668 59.5891C71.4722 59.6859 72.5258 59.776 73.4574 59.3859C73.5611 58.3173 73.4243 57.2391 73.0571 56.2302C72.9041 55.9179 72.831 55.5726 72.8443 55.2251C72.9713 54.375 74.1052 54.1609 74.9569 54.2757C75.8087 54.3906 76.8329 54.5663 77.3926 53.914C77.7781 53.4647 77.7553 52.8105 77.8064 52.2206C77.9455 50.6149 80.9842 50.3538 80.9987 50.0172Z" fill="#2F2E41"/>
<path d="M135.79 191.124C141.539 191.124 146.199 186.464 146.199 180.715C146.199 174.967 141.539 170.307 135.79 170.307C130.041 170.307 125.381 174.967 125.381 180.715C125.381 186.464 130.041 191.124 135.79 191.124Z" fill="#3F32F1"/>
<path d="M13.5493 187.493C19.2978 187.493 23.9579 182.833 23.9579 177.084C23.9579 171.336 19.2978 166.676 13.5493 166.676C7.80073 166.676 3.14062 171.336 3.14062 177.084C3.14062 182.833 7.80073 187.493 13.5493 187.493Z" fill="#3F32F1"/>
<path d="M13.5493 170.789C17.6936 170.789 21.0532 167.429 21.0532 163.285C21.0532 159.141 17.6936 155.781 13.5493 155.781C9.40502 155.781 6.04541 159.141 6.04541 163.285C6.04541 167.429 9.40502 170.789 13.5493 170.789Z" fill="#3F32F1"/>
<path d="M13.5495 156.992C16.4906 156.992 18.8748 154.608 18.8748 151.667C18.8748 148.726 16.4906 146.342 13.5495 146.342C10.6084 146.342 8.22412 148.726 8.22412 151.667C8.22412 154.608 10.6084 156.992 13.5495 156.992Z" fill="#3F32F1"/>
</g>
<defs>
<clipPath id="clip0_2502_6963">
<rect width="193.044" height="202" fill="white" transform="translate(0.478027 0.5)"/>
</clipPath>
</defs>
</svg>
