<svg width="57" height="33" viewBox="0 0 57 33" fill="none" xmlns="http://www.w3.org/2000/svg">
<g clip-path="url(#clip0_2797_3558)">
<path d="M3.28204 18.5342C2.36448 18.5342 1.44692 19.0662 1.18476 19.9971C0.791523 20.9281 1.05368 21.859 1.70908 22.524L10.3604 31.3016C11.2779 32.2325 12.7198 32.2325 13.6374 31.3016C14.5549 30.3706 14.5549 28.9077 13.6374 27.9767L9.04956 23.3219H35.1345C36.4453 23.3219 37.4939 22.258 37.4939 20.9281C37.4939 19.5981 36.4453 18.5342 35.1345 18.5342H3.28204Z" stroke="#392EDB" stroke-width="1.5" stroke-miterlimit="10" stroke-linecap="round" stroke-linejoin="round"/>
<path d="M53.0298 14.4656C53.9473 14.4656 54.8649 13.9336 55.1271 13.0027C55.5203 12.0717 55.2581 11.1408 54.6027 10.4758L45.9515 1.69822C45.0339 0.767261 43.592 0.767261 42.6745 1.69822C41.7569 2.62917 41.7569 4.0921 42.6745 5.02306L47.2623 9.67783H21.4395C20.1287 9.67783 19.0801 10.7418 19.0801 12.0717C19.0801 13.4017 20.1287 14.4656 21.4395 14.4656H53.0298Z" stroke="#392EDB" stroke-width="1.5" stroke-miterlimit="10" stroke-linecap="round" stroke-linejoin="round"/>
</g>
<defs>
<clipPath id="clip0_2797_3558">
<rect width="56.3122" height="32.9996" fill="white"/>
</clipPath>
</defs>
</svg>
